# xmcd
#
# Track frame offsets:
#	150
#	9632
#	22445
#	35235
#	54500
#	65320
#	75040
#	86177
#	99675
#	120315
#	132377
#	146537
#	159875
#	172627
#	183542
#	197512
#	209405
#	221742
#	237470
#	243277
#
# Disc length: 3419 seconds
#
# Revision: 0
# Processed by: cddbd v1.4PL0 Copyright (c) Steve Scherf et al.
# Submitted via: audiograbber 1.80.04
#
DISCID=140d5914
DTITLE=Various Artist - Country Love
DYEAR=1998
DGENRE=Country
TTITLE0=Bellamy Brothers - Let Your Love Flow
TTITLE1=Boxcar Willie - Hobo Heaven
TTITLE2=Faron Young - It´s Four The Morning
TTITLE3=Tina Turner - Lovin Him Was Easier
TTITLE4=George Jones - Tender Years
TTITLE5=Freddy Fender - Your Cheating Heart
TTITLE6=Faron Young - Cryin Time
TTITLE7=Tammy Wynette - Til I Can Make It On My Own
TTITLE8=Barbara Fairchild - Tip Of My Fingers
TTITLE9=Don Williams - On Her Way To Be A Woman
TTITLE10=George Jones - A Good Year For The Roses
TTITLE11=Kenny Rogers - Ruby. Don´t Take Your Love To Town
TTITLE12=Tina Turner - If It´s Alright With You
TTITLE13=Tammy Wynette - Fairly Tales
TTITLE14=Barbara Faichild - Teddy Bear Song
TTITLE15=Freddy Fender - Talk To Me, Talk To Me
TTITLE16=Willie Nelson - The Shelter Of Your Arms
TTITLE17=Johnny Rodriguez - North Of the Border
TTITLE18=Tammy Wynette - Singing My Song
TTITLE19=Kathy Mattea - Ball And Chain
EXTD=
EXTT0=
EXTT1=
EXTT2=
EXTT3=
EXTT4=
EXTT5=
EXTT6=
EXTT7=
EXTT8=
EXTT9=
EXTT10=
EXTT11=
EXTT12=
EXTT13=
EXTT14=
EXTT15=
EXTT16=
EXTT17=
EXTT18=
EXTT19=
PLAYORDER=
